<?xml version="1.0"?>
<svg xmlns="http://www.w3.org/2000/svg" xmlns:xlink="http://www.w3.org/1999/xlink" xmlns:svgjs="http://svgjs.com/svgjs" version="1.1" width="512" height="512" x="0" y="0" viewBox="0 0 64 64" style="enable-background:new 0 0 512 512" xml:space="preserve" class=""><g><link type="text/css" rel="stylesheet" id="dark-mode-general-link"/><link type="text/css" rel="stylesheet" id="dark-mode-custom-link"/><style type="text/css" id="dark-mode-custom-style"/><g xmlns="http://www.w3.org/2000/svg" id="advisor"><path d="m54.25 29.03-2.93-.98a.97.97 0 0 0 -.63.01l-.32-1.93a7.023 7.023 0 0 0 3.55-5.13h1.08a2.006 2.006 0 0 0 2-2v-1a2 2 0 0 0 -1.62-1.96l1.33-1.33a1.033 1.033 0 0 0 .29-.71v-1a7.008 7.008 0 0 0 -7-7h-6a7.008 7.008 0 0 0 -7 7v1a1.033 1.033 0 0 0 .29.71l1.33 1.33a2 2 0 0 0 -1.62 1.96v1a2.006 2.006 0 0 0 2 2h1.08a7.023 7.023 0 0 0 3.55 5.13l-.32 1.93a.97.97 0 0 0 -.63-.01l-2.93.98a9 9 0 0 0 -7.75 8.97v.15l-6.04-7.55a4.99 4.99 0 0 0 -4.96-4.6h-10a1 1 0 0 0 -1 1 5 5 0 0 0 5 5h3.46l13.54 20.3v6.7a3.009 3.009 0 0 0 3 3h26a1 1 0 0 0 1-1v-23a9 9 0 0 0 -7.75-8.97zm.75-10.03h-1v-1h1zm-15 0h-1v-1h1zm0-5v.59l-1-1v-.59a5 5 0 0 1 5-5h6a5 5 0 0 1 5 5v.59l-1 1v-.59a.977.977 0 0 0 -.55-.89l-4-2a.978.978 0 0 0 -.69-.08l-8 2a1 1 0 0 0 -.76.97zm2 6v-5.22l6.88-1.72 3.12 1.56v5.38a5 5 0 0 1 -10 0zm6.93 9.66-1.93 1.93-1.93-1.93.47-2.82a6.741 6.741 0 0 0 2.92 0zm-6.2.48 3.56 3.57a1.008 1.008 0 0 0 1.42 0l3.56-3.57 1.13.38-3.91 5.48h-2.98l-3.91-5.48zm6.09 11.86 1.11 6.66-2.93 2.93-2.93-2.93 1.11-6.66zm-3.31-2 .34-2h2.3l.34 2zm-30.51-10a3.014 3.014 0 0 1 -2.83-2h8.83a3.014 3.014 0 0 1 2.83 2zm45 30h-4v-10h4zm0-12h-5a1 1 0 0 0 -1 1v11h-19a1 1 0 0 1 -1-1v-7a.967.967 0 0 0 -.17-.55l-12.96-19.45h3.65l7.7 9.62a.983.983 0 0 0 1.11.32 1 1 0 0 0 .67-.94v-3a7.015 7.015 0 0 1 5.55-6.91l4.4 6.15-1.94 11.6a1.011 1.011 0 0 0 .28.87l4 4a1.014 1.014 0 0 0 1.42 0l4-4a1.011 1.011 0 0 0 .28-.87l-1.94-11.6 4.4-6.15a7.015 7.015 0 0 1 5.55 6.91z" fill="#c81050" data-original="#000000" style=""/><path d="m5 24h24a3 3 0 0 0 3-3v-16a3 3 0 0 0 -3-3h-24a3 3 0 0 0 -3 3v16a3 3 0 0 0 3 3zm-1-19a1 1 0 0 1 1-1h24a1 1 0 0 1 1 1v16a1 1 0 0 1 -1 1h-24a1 1 0 0 1 -1-1z" fill="#c81050" data-original="#000000" style=""/><path d="m6 6h2v2h-2z" fill="#c81050" data-original="#000000" style=""/><path d="m10 6h18v2h-18z" fill="#c81050" data-original="#000000" style=""/><path d="m6 14h22v2h-22z" fill="#c81050" data-original="#000000" style=""/><path d="m6 10h22v2h-22z" fill="#c81050" data-original="#000000" style=""/><path d="m6 18h22v2h-22z" fill="#c81050" data-original="#000000" style=""/><path d="m11 49a4 4 0 1 0 4 4 4 4 0 0 0 -4-4zm0 6a2 2 0 1 1 2-2 2 2 0 0 1 -2 2z" fill="#c81050" data-original="#000000" style=""/><path d="m19.243 50.03-.669-.167.355-.591a1 1 0 0 0 -.151-1.222l-2.828-2.828a1 1 0 0 0 -1.222-.151l-.591.355-.167-.669a1 1 0 0 0 -.97-.757h-4a1 1 0 0 0 -.97.757l-.167.669-.591-.355a1 1 0 0 0 -1.222.151l-2.828 2.828a1 1 0 0 0 -.151 1.222l.355.591-.669.167a1 1 0 0 0 -.757.97v4a1 1 0 0 0 .757.97l.669.167-.355.591a1 1 0 0 0 .151 1.222l2.828 2.828a1 1 0 0 0 1.222.151l.591-.355.167.669a1 1 0 0 0 .97.757h4a1 1 0 0 0 .97-.757l.167-.669.591.355a1 1 0 0 0 1.222-.151l2.828-2.828a1 1 0 0 0 .151-1.222l-.355-.591.669-.167a1 1 0 0 0 .757-.97v-4a1 1 0 0 0 -.757-.97zm-1.243 4.189-1.221.3a1 1 0 0 0 -.614 1.485l.647 1.079-1.724 1.724-1.079-.647a1 1 0 0 0 -1.485.614l-.305 1.226h-2.438l-.3-1.221a1 1 0 0 0 -1.485-.614l-1.079.647-1.729-1.724.647-1.079a1 1 0 0 0 -.614-1.485l-1.221-.305v-2.438l1.221-.3a1 1 0 0 0 .614-1.485l-.647-1.079 1.724-1.724 1.079.647a1 1 0 0 0 1.485-.615l.3-1.22h2.438l.3 1.22a1 1 0 0 0 1.485.615l1.079-.647 1.724 1.724-.647 1.079a1 1 0 0 0 .614 1.485l1.221.3z" fill="#c81050" data-original="#000000" style=""/><path d="m10 40h2v2h-2z" fill="#c81050" data-original="#000000" style=""/><path d="m10 33h2v5h-2z" fill="#c81050" data-original="#000000" style=""/><path d="m22 52h2v2h-2z" fill="#c81050" data-original="#000000" style=""/><path d="m26 52h4v2h-4z" fill="#c81050" data-original="#000000" style=""/></g></g></svg>
