<?xml version="1.0"?>
<svg xmlns="http://www.w3.org/2000/svg" xmlns:xlink="http://www.w3.org/1999/xlink" xmlns:svgjs="http://svgjs.com/svgjs" version="1.1" width="512" height="512" x="0" y="0" viewBox="0 0 480.059 480.059" style="enable-background:new 0 0 512 512" xml:space="preserve" class=""><g><link type="text/css" rel="stylesheet" id="dark-mode-general-link"/><link type="text/css" rel="stylesheet" id="dark-mode-custom-link"/><style type="text/css" id="dark-mode-custom-style"/>
<g xmlns="http://www.w3.org/2000/svg">
	<g>
		<g>
			<path d="M479.878,190.835c-0.048-0.341-0.12-0.677-0.216-1.008c-0.053-0.257-0.123-0.511-0.208-0.76     c-0.107-0.215-0.228-0.423-0.36-0.624l-0.2-0.352c-0.144-0.274-0.302-0.541-0.472-0.8c-0.152-0.2-0.328-0.384-0.496-0.568     c-0.248-0.258-0.515-0.496-0.8-0.712c-0.25-0.258-0.517-0.499-0.8-0.72l-12.376-7.736c0.072-0.495,0.099-0.996,0.08-1.496v-64     v-0.152c-0.026-0.306-0.069-0.611-0.128-0.912c-0.052-0.482-0.145-0.958-0.28-1.424c0-0.08,0-0.16-0.048-0.24     c-0.105-0.223-0.222-0.439-0.352-0.648c-0.19-0.419-0.412-0.823-0.664-1.208c-0.203-0.281-0.425-0.549-0.664-0.8     c-0.285-0.32-0.596-0.617-0.928-0.888c-0.288-0.217-0.59-0.414-0.904-0.592c-0.216-0.128-0.392-0.296-0.616-0.4     c-0.165-0.059-0.334-0.11-0.504-0.152c-0.342-0.131-0.692-0.238-1.048-0.32c-0.418-0.102-0.843-0.169-1.272-0.2     c-0.192,0-0.376-0.088-0.568-0.088H365.63C352.496,34.69,285.635-10.878,216.29,2.255c-51.624,9.777-92.003,50.156-101.78,101.78     H24.03c-0.184,0-0.36,0.072-0.544,0.088c-0.445,0.027-0.887,0.094-1.32,0.2c-0.347,0.083-0.689,0.188-1.024,0.312     c-0.16,0.064-0.344,0.08-0.504,0.16c-0.16,0.08-0.4,0.272-0.616,0.4c-0.314,0.178-0.616,0.375-0.904,0.592     c-0.332,0.271-0.643,0.568-0.928,0.888c-0.239,0.251-0.461,0.519-0.664,0.8c-0.252,0.385-0.474,0.789-0.664,1.208     c-0.13,0.209-0.247,0.425-0.352,0.648c0,0.08,0,0.16-0.048,0.24c-0.135,0.466-0.228,0.942-0.28,1.424     c-0.067,0.301-0.118,0.606-0.152,0.912v0.152v64c0.001,0.496,0.046,0.992,0.136,1.48L3.79,185.275     c-0.283,0.221-0.55,0.462-0.8,0.72c-0.285,0.216-0.552,0.454-0.8,0.712c-0.168,0.184-0.344,0.368-0.496,0.568     c-0.17,0.259-0.328,0.526-0.472,0.8l-0.2,0.352c-0.132,0.201-0.253,0.409-0.36,0.624c-0.085,0.249-0.155,0.503-0.208,0.76     c-0.096,0.33-0.168,0.667-0.216,1.008c-0.094,0.355-0.164,0.716-0.208,1.08v0.16v280c0,4.418,3.582,8,8,8h464     c4.418,0,8-3.582,8-8v-280c0-0.056,0-0.104,0-0.16C480.003,191.542,479.952,191.186,479.878,190.835z M433.934,120.059     l-31.024,25.848c-3.396,2.826-3.859,7.87-1.033,11.266c0.545,0.655,1.191,1.219,1.913,1.67l40.344,25.216h-76.56     c-1.323-22.912-8.847-45.033-21.768-64H433.934z M448.03,129.139v38.48l-26.4-16.488L448.03,129.139z M325.822,120.059     c15.183,18.045,24.206,40.468,25.752,64H128.486c1.547-23.532,10.569-45.955,25.752-64H325.822z M170.934,104.059     c0.656-0.52,1.232-1.104,1.904-1.6c39.822-29.867,94.578-29.867,134.4,0c0.672,0.504,1.248,1.088,1.904,1.6H170.934z      M240.03,16.059c52.556,0.1,97.996,36.678,109.32,88h-16.632c-4.892-5.228-10.206-10.044-15.888-14.4     c-45.511-34.133-108.089-34.133-153.6,0c-5.681,4.358-10.995,9.174-15.888,14.4H130.71     C142.034,52.737,187.474,16.159,240.03,16.059z M134.254,120.059c-12.925,18.965-20.449,41.088-21.768,64h-76.56l40.344-25.216     c3.748-2.34,4.889-7.275,2.55-11.023c-0.451-0.723-1.015-1.368-1.67-1.913l-31.024-25.848H134.254z M32.03,129.139l26.4,21.992     l-26.4,16.488V129.139z M464.03,464.059h-448v-264h448V464.059z" fill="#c81050" data-original="#000000" style="" class=""/>
			<path d="M151.75,417.083c44.408,48.76,119.936,52.287,168.696,7.879c2.83-2.578,5.535-5.29,8.104-8.127     c0.576-0.476,1.082-1.031,1.504-1.648c40.421-45.631,39.931-114.397-1.136-159.448l-0.016-0.024     c-0.183-0.232-0.38-0.451-0.592-0.656c-44.415-48.753-119.943-52.27-168.697-7.855c-2.739,2.495-5.36,5.116-7.855,7.855     c-0.257,0.251-0.497,0.518-0.72,0.8c-41.382,45.533-41.337,115.073,0.104,160.552     C151.332,416.647,151.535,416.871,151.75,417.083z M278.334,432.651c5.645-8.003,10.232-16.702,13.648-25.88l0.008-0.008     c6.075,1.654,12.03,3.72,17.824,6.184C300.587,421.35,289.924,428.024,278.334,432.651z M321.374,400.667     c-7.852-3.759-16.023-6.811-24.416-9.12c4.113-15.511,6.417-31.447,6.864-47.488h39.8     C342.053,364.733,334.301,384.457,321.374,400.667z M343.622,328.059h-39.8c-0.447-16.041-2.751-31.977-6.864-47.488     c8.393-2.312,16.563-5.364,24.416-9.12C334.301,287.661,342.053,307.385,343.622,328.059z M291.99,265.355     c-3.422-9.184-8.015-17.887-13.664-25.896c11.59,4.627,22.253,11.301,31.48,19.704     C304.013,261.626,298.061,263.694,291.99,265.355z M248.03,233.739c10.568,4.24,20.8,16.608,28.32,35.144     c-9.362,1.626-18.824,2.607-28.32,2.936V233.739z M248.03,287.843c11.238-0.36,22.431-1.587,33.48-3.672     c3.788,14.338,5.909,29.064,6.32,43.888h-39.8V287.843z M248.03,344.059h39.8c-0.41,14.824-2.533,29.552-6.328,43.888     c-11.048-2.066-22.238-3.289-33.472-3.656V344.059z M248.03,400.299c9.496,0.328,18.958,1.309,28.32,2.936     c-7.52,18.536-17.752,30.904-28.32,35.144V400.299z M170.262,412.955c5.79-2.462,11.74-4.53,17.808-6.192h0.008     c3.422,9.184,8.015,17.888,13.664,25.896C190.152,428.032,179.489,421.358,170.262,412.955z M232.03,438.379     c-10.568-4.24-20.8-16.608-28.32-35.144c9.362-1.626,18.824-2.607,28.32-2.936V438.379z M232.03,384.291     c-11.234,0.369-22.423,1.591-33.472,3.656c-3.795-14.336-5.919-29.064-6.328-43.888h39.8V384.291z M232.03,328.059h-39.8     c0.41-14.824,2.533-29.552,6.328-43.888c11.046,2.086,22.237,3.314,33.472,3.672V328.059z M232.03,233.739v38.08     c-9.496-0.328-18.958-1.309-28.32-2.936C211.23,250.347,221.462,237.979,232.03,233.739z M201.734,239.459     c-5.648,8.005-10.238,16.707-13.656,25.888c-6.075-1.654-12.03-3.72-17.824-6.184     C179.481,250.761,190.144,244.087,201.734,239.459z M158.686,271.451c7.852,3.759,16.023,6.811,24.416,9.12     c-4.113,15.511-6.417,31.447-6.864,47.488h-39.8C138.007,307.385,145.759,287.661,158.686,271.451z M176.238,344.059     c0.447,16.041,2.751,31.977,6.864,47.488c-8.393,2.312-16.563,5.364-24.416,9.12c-12.926-16.211-20.678-35.934-22.248-56.608     H176.238z" fill="#c81050" data-original="#000000" style="" class=""/>
		</g>
	</g>
</g>
<g xmlns="http://www.w3.org/2000/svg">
</g>
<g xmlns="http://www.w3.org/2000/svg">
</g>
<g xmlns="http://www.w3.org/2000/svg">
</g>
<g xmlns="http://www.w3.org/2000/svg">
</g>
<g xmlns="http://www.w3.org/2000/svg">
</g>
<g xmlns="http://www.w3.org/2000/svg">
</g>
<g xmlns="http://www.w3.org/2000/svg">
</g>
<g xmlns="http://www.w3.org/2000/svg">
</g>
<g xmlns="http://www.w3.org/2000/svg">
</g>
<g xmlns="http://www.w3.org/2000/svg">
</g>
<g xmlns="http://www.w3.org/2000/svg">
</g>
<g xmlns="http://www.w3.org/2000/svg">
</g>
<g xmlns="http://www.w3.org/2000/svg">
</g>
<g xmlns="http://www.w3.org/2000/svg">
</g>
<g xmlns="http://www.w3.org/2000/svg">
</g>
</g></svg>
