<?xml version="1.0"?>
<svg xmlns="http://www.w3.org/2000/svg" xmlns:xlink="http://www.w3.org/1999/xlink" xmlns:svgjs="http://svgjs.com/svgjs" version="1.1" width="512" height="512" x="0" y="0" viewBox="0 0 512 512" style="enable-background:new 0 0 512 512" xml:space="preserve" class=""><g><link type="text/css" rel="stylesheet" id="dark-mode-general-link"/><link type="text/css" rel="stylesheet" id="dark-mode-custom-link"/><style type="text/css" id="dark-mode-custom-style"/>
<g xmlns="http://www.w3.org/2000/svg">
	<g>
		<path d="M413.957,0H98.043C75.517,0,57.192,18.325,57.192,40.851v430.298c0,22.526,18.325,40.851,40.851,40.851h315.915    c22.526,0,40.851-18.325,40.851-40.851V40.851C454.809,18.325,436.483,0,413.957,0z M187.915,16.34h136.17v16.34h-136.17V16.34z     M187.915,49.021h136.17v19.064c0,4.506-3.665,8.17-8.17,8.17h-119.83c-4.506,0-8.17-3.665-8.17-8.17V49.021z M438.468,471.149    c0,13.516-10.996,24.511-24.511,24.511H98.043c-13.515,0-24.511-10.995-24.511-24.511V40.851    c0-13.516,10.996-24.511,24.511-24.511h73.532v51.745c0,13.516,10.996,24.511,24.511,24.511h119.83    c13.515,0,24.511-10.995,24.511-24.511V16.34h73.532c13.515,0,24.511,10.995,24.511,24.511V471.149z" fill="#c81050" data-original="#000000" style="" class=""/>
	</g>
</g>
<g xmlns="http://www.w3.org/2000/svg">
	<g>
		<path d="M413.957,32.681h-49.021c-4.513,0-8.17,3.658-8.17,8.17s3.657,8.17,8.17,8.17h40.851v413.957H106.213V49.021h40.851    c4.513,0,8.17-3.658,8.17-8.17s-3.657-8.17-8.17-8.17H98.043c-4.513,0-8.17,3.658-8.17,8.17v430.298c0,4.512,3.657,8.17,8.17,8.17    h315.915c4.513,0,8.17-3.658,8.17-8.17V40.851C422.128,36.339,418.471,32.681,413.957,32.681z" fill="#c81050" data-original="#000000" style="" class=""/>
	</g>
</g>
<g xmlns="http://www.w3.org/2000/svg">
	<g>
		<path d="M332.351,166.122l-23.599-21.787c-3.132-2.889-7.956-2.89-11.085,0l-18.057,16.671l-18.056-16.671    c-3.13-2.889-7.956-2.889-11.083-0.001l-18.068,16.673l-18.058-16.672c-3.132-2.889-7.956-2.888-11.083-0.001l-23.61,21.787    c-3.316,3.06-3.524,8.229-0.464,11.545c1.611,1.744,3.805,2.629,6.007,2.629c1.98,0,3.969-0.717,5.538-2.166l18.068-16.673    l18.058,16.672c3.132,2.889,7.956,2.888,11.083,0.001l18.068-16.673l18.057,16.672c3.13,2.888,7.953,2.889,11.085,0l18.057-16.671    l18.056,16.671c3.316,3.061,8.484,2.854,11.546-0.461C335.873,174.352,335.666,169.183,332.351,166.122z" fill="#c81050" data-original="#000000" style="" class=""/>
	</g>
</g>
<g xmlns="http://www.w3.org/2000/svg">
	<g>
		<path d="M291.803,397.068H264.17v-64.924c24.663-3.93,43.574-25.343,43.574-51.094c0-1.8-0.095-3.619-0.281-5.402l-1.781-17.193    c-0.001-0.019-0.003-0.036-0.005-0.055l-4.512-43.553c-0.431-4.164-3.94-7.328-8.127-7.328h-74.077    c-4.186,0-7.695,3.165-8.127,7.328l-6.299,60.795c-0.186,1.79-0.281,3.609-0.281,5.409c0,25.751,18.911,47.164,43.574,51.093    v64.924h-27.633c-4.513,0-8.17,3.658-8.17,8.17c0,4.512,3.657,8.17,8.17,8.17h71.606c4.513,0,8.17-3.658,8.17-8.17    C299.973,400.726,296.316,397.068,291.803,397.068z M220.596,281.05c0-1.235,0.065-2.485,0.194-3.719l5.539-53.472h59.343    l2.821,27.234h-41.364c-4.513,0-8.17,3.658-8.17,8.17c0,4.512,3.657,8.17,8.17,8.17h43.057l1.026,9.904    c0.129,1.228,0.194,2.477,0.194,3.713c0,19.521-15.882,35.404-35.404,35.404C236.48,316.454,220.596,300.572,220.596,281.05z" fill="#c81050" data-original="#000000" style="" class=""/>
	</g>
</g>
<g xmlns="http://www.w3.org/2000/svg">
</g>
<g xmlns="http://www.w3.org/2000/svg">
</g>
<g xmlns="http://www.w3.org/2000/svg">
</g>
<g xmlns="http://www.w3.org/2000/svg">
</g>
<g xmlns="http://www.w3.org/2000/svg">
</g>
<g xmlns="http://www.w3.org/2000/svg">
</g>
<g xmlns="http://www.w3.org/2000/svg">
</g>
<g xmlns="http://www.w3.org/2000/svg">
</g>
<g xmlns="http://www.w3.org/2000/svg">
</g>
<g xmlns="http://www.w3.org/2000/svg">
</g>
<g xmlns="http://www.w3.org/2000/svg">
</g>
<g xmlns="http://www.w3.org/2000/svg">
</g>
<g xmlns="http://www.w3.org/2000/svg">
</g>
<g xmlns="http://www.w3.org/2000/svg">
</g>
<g xmlns="http://www.w3.org/2000/svg">
</g>
</g></svg>
